<svg width="720" height="700" viewBox="0 0 720 700" fill="none" xmlns="http://www.w3.org/2000/svg">
<g style="mix-blend-mode:overlay">
<path fill-rule="evenodd" clip-rule="evenodd" d="M546.068 452.644C559.94 452.644 569.46 462.693 569.46 476.817C569.46 490.94 559.94 501.261 546.068 501.261H181.046C166.902 501.261 157.11 490.94 157.11 476.817C157.11 462.693 166.902 452.644 181.046 452.644H360.837C355.125 452.101 349.685 449.113 345.061 444.496L164.726 263.877C159.558 258.445 157.11 252.741 157.11 246.223C157.11 232.914 166.902 222.593 180.502 222.593C187.03 222.593 193.558 224.766 197.638 229.111L259.654 289.951L340.981 379.038L339.077 321.186V0.106735C325.655 3.61677 312.184 10.3944 298.572 20.4396L44.1744 207.385C4.32108 236.606 -7.96703 275.124 7.31009 323.272L105.283 627.765C107.123 633.611 109.383 640.311 111.908 647.341C123.743 680.29 155.952 699.488 190.962 699.488H203.588H517.765H528.711C563.91 699.488 596.477 680.218 609.12 647.367C611.824 640.343 614.228 633.616 616.07 627.765L713.378 324.6C728.988 275.456 717.032 236.606 677.178 207.385L422.781 20.4396C410.932 11.6953 399.189 5.42706 387.493 1.63486V321.186L385.589 379.31L466.916 289.951L528.932 229.111C533.284 224.766 539.54 222.593 546.068 222.593C559.668 222.593 569.46 232.914 569.46 246.223C569.46 252.741 567.284 258.445 562.116 263.877L381.509 444.496C376.885 449.113 371.717 452.101 366.005 452.644H546.068Z" fill="white"/>
</g>
</svg>
